<?xml version="1.0" encoding="UTF-8" standalone="no"?>
<!DOCTYPE svg PUBLIC "-//W3C//DTD SVG 1.1//EN" "http://www.w3.org/Graphics/SVG/1.1/DTD/svg11.dtd">
<svg width="100%" height="100%" viewBox="0 0 1203 1309" version="1.1" xmlns="http://www.w3.org/2000/svg" xmlns:xlink="http://www.w3.org/1999/xlink" xml:space="preserve" xmlns:serif="http://www.serif.com/" style="fill-rule:evenodd;clip-rule:evenodd;stroke-linecap:round;stroke-linejoin:round;stroke-miterlimit:1.5;">
    <g id="Layer1" transform="matrix(1,0,0,1,7.63854,-8.12676)">
        <path d="M199.213,190.68C199.213,190.68 876.64,23.575 880.144,22.552C883.457,21.586 907.305,27.201 924.792,42.736C942.28,58.27 1114.46,215.672 1115,215.766C1115.53,215.86 1115.19,958.33 1115.19,958.33C1115.19,958.33 1129.43,1023.28 1064,1095.23C1055.09,1105.03 1017.36,1138.18 960.838,1150.75C958.491,1151.27 418.821,1295.04 418.821,1295.04C418.821,1295.04 387.606,1294.69 362.396,1281.62C361.286,1281.04 327.437,1291.32 275.74,1288.55C224.043,1285.79 204.344,1282.17 188.221,1268.92C186.922,1267.85 123.399,1245.61 109.197,1163.51C108.135,1157.37 107.047,352.182 107.047,352.182C107.047,352.182 109.5,304.47 137.542,247.355C152.155,217.592 188.027,196.314 199.213,190.68Z"/>
        <path d="M442.911,170.422L918.548,44.361L1111.32,217.256L1110.69,957.709C1110.69,957.709 1119.34,1019.16 1083.41,1063.87C1067.23,1084 1043.5,1126.57 961.151,1146.97C885.045,1165.83 419.318,1290.19 419.318,1290.19C419.318,1290.19 392.714,1292.64 359.618,1275.49C358.213,1274.76 332.483,1258.51 323.862,1223.02C315.242,1187.52 314.264,1183.75 313.952,1153.07C313.639,1122.39 314.26,951.425 314.26,951.425L316.96,344.363C316.96,344.363 318.651,302.533 344.506,260.796C370.362,219.059 408.014,189.034 422.992,180.486C437.969,171.939 442.911,170.422 442.911,170.422Z" style="fill:white;stroke:black;stroke-width:1px;"/>
        <g id="Layer3" transform="matrix(1,0,0,1,0.888584,120.786)">
            <g id="Layer31" serif:id="Layer3" transform="matrix(1,0,0,1,-0.888584,-120.786)">
                <path d="M710.991,238.387C710.991,238.387 730.882,236.511 737.67,258.004C739.001,262.219 740.914,262.849 737.67,270.436C734.426,278.023 728.765,288.625 708.02,295.104C705.123,296.009 469.374,360.385 469.374,360.385C469.374,360.385 449.772,350.298 447.495,343.435C445.219,336.572 446.489,334.928 446.754,332.433C447.018,329.937 453.936,315.404 455.256,313.224C456.577,311.044 457.953,308.164 457.953,308.164L468.943,306.077L710.991,238.387Z" style="fill:rgb(23,64,78);"/>
                <path d="M468.829,335.855C468.829,335.855 465.931,322.705 471.373,311.046C471.81,310.109 715.903,245.087 715.903,245.087L721.273,241.27C721.273,241.27 719.227,238.226 712.205,238.388C705.183,238.549 463.802,308.257 463.802,308.257C463.802,308.257 460.618,308.096 458.057,307.963C455.496,307.829 447.31,326.344 446.578,332.081C445.846,337.818 445.28,343.896 445.28,343.896C445.28,343.896 449.951,351.679 458.884,355.511C467.818,359.344 472.982,359.029 472.982,359.029C472.982,359.029 468.8,336.416 468.829,335.855Z"/>
            </g>
            <path d="M710.991,238.387C710.991,238.387 730.882,236.511 737.67,258.004C739.001,262.219 740.914,262.849 737.67,270.436C734.426,278.023 728.765,288.625 708.02,295.104C705.123,296.009 469.374,360.385 469.374,360.385C469.374,360.385 449.772,350.298 447.495,343.435C445.219,336.572 446.489,334.928 446.754,332.433C447.018,329.937 453.936,315.404 455.256,313.224C456.577,311.044 457.953,308.164 457.953,308.164L468.943,306.077L710.991,238.387Z" style="fill:rgb(23,64,78);"/>
            <path d="M468.829,335.855C468.829,335.855 465.931,322.705 471.373,311.046C471.81,310.109 715.903,245.087 715.903,245.087L721.273,241.27C721.273,241.27 719.227,238.226 712.205,238.388C705.183,238.549 463.802,308.257 463.802,308.257C463.802,308.257 460.618,308.096 458.057,307.963C455.496,307.829 447.31,326.344 446.578,332.081C445.846,337.818 445.28,343.896 445.28,343.896C445.28,343.896 449.951,351.679 458.884,355.511C467.818,359.344 472.982,359.029 472.982,359.029C472.982,359.029 468.8,336.416 468.829,335.855Z"/>
        </g>
        <path d="M341.136,180.271C341.136,180.271 258.323,203.969 249.628,209.988C240.933,216.007 195.67,246.882 180.672,273.478C165.673,300.074 149.666,324.847 148.863,357.963C148.059,391.08 148.658,627.684 148.658,627.684L150.565,906.295L150.99,1167.32C150.99,1167.32 155.334,1202.08 163.122,1218.37C170.909,1234.65 179.893,1255.98 188.625,1263.08C197.357,1270.19 203.683,1274.05 209.405,1275.63C215.127,1277.21 264.227,1285.06 279.074,1284.44C293.92,1283.82 333.321,1284.73 354.272,1279.01C355.135,1278.77 325.222,1265.53 310.154,1248.38C295.085,1231.22 288.04,1222.68 282.072,1206.81C281.518,1205.34 279.277,1197.62 279.1,1187.11C278.924,1176.6 278.75,948.608 278.75,948.608L278.999,871.953L278.189,369.191C278.189,369.191 272.969,328.921 288.511,289.844C304.054,250.767 312.38,230.924 324.227,211.84C336.073,192.756 341.136,180.271 341.136,180.271Z" style="fill:white;"/>
        <g id="Layer2">
            <g transform="matrix(1,0,0,1,0.469428,-0.883161)">
                <path d="M442.911,170.422L918.548,44.361L1111.32,217.256L1110.69,957.709C1110.69,957.709 1119.34,1019.16 1083.41,1063.87C1067.23,1084 1043.5,1126.57 961.151,1146.97C885.045,1165.83 419.145,1291.16 419.145,1291.16C419.145,1291.16 392.175,1293.58 359.08,1276.43C357.674,1275.7 331.54,1258.62 322.92,1223.13C314.299,1187.64 314.264,1183.75 313.952,1153.07C313.639,1122.39 314.26,951.425 314.26,951.425L316.96,344.363C316.96,344.363 318.651,302.533 344.506,260.796C370.362,219.059 408.014,189.034 422.992,180.486C437.969,171.939 442.911,170.422 442.911,170.422ZM868.437,103.607L457.161,211.177C457.161,211.177 413.773,228.883 395.413,254.543C377.053,280.203 363.685,301.302 359.975,318.667C356.266,336.032 355.26,340.436 355.614,348.628C355.969,356.82 354.584,670.727 354.584,670.727L354.033,952.837L354.538,1176.65C354.538,1176.65 356.602,1201.08 371.558,1216.31C386.514,1231.54 391.26,1237.74 410.411,1239.96C414.088,1240.38 429.607,1240.84 435.44,1238.81C441.272,1236.77 977.375,1093.53 977.375,1093.53C977.375,1093.53 1011.32,1081.36 1025.76,1063.79C1040.19,1046.23 1057.1,1025.59 1056.85,989.683C1056.74,973.343 1060.28,768.308 1060.28,768.308L1059.94,693.188L1060.58,485.464L1059.77,278.777L895.836,317.18L873.732,304.968L868.437,103.607ZM922.396,114.195L922.279,253.87L1040.71,224.723L922.396,114.195Z" style="fill:rgb(128,128,128);"/>
            </g>
            <path d="M342.015,179.427C342.015,179.427 276.632,196.067 249.474,209.842C230.001,219.719 194.198,251.683 177.157,276.051C158.129,303.26 151.044,331.114 149.089,349.682C147.135,368.249 147.849,400.004 147.538,407.92C147.185,416.887 148.217,628.105 148.217,628.105L149.755,834.939L150.088,906.004L150.279,1114.25L151.43,1172.86C151.43,1172.86 156.627,1205.27 166.034,1226.69C177.393,1252.56 186.525,1262.7 195.484,1269.04C210.433,1279.6 239.753,1283.11 275.344,1284.44C312.153,1285.81 349.494,1281.05 354.516,1279.3C356.005,1278.78 335.802,1269.93 318.373,1255.91C317.03,1254.84 291.958,1263.28 259.045,1251.48C256.383,1250.53 234.978,1245.26 214.938,1220.95C213.649,1219.38 192.28,1197.71 190.614,1168.49C188.948,1139.26 189.79,1125.33 189.79,1125.33L188.908,920.155L189.459,844.822L187.533,365.501C187.533,365.501 186.982,348.937 197.928,326.387C208.875,303.836 214.134,292.008 232.802,275.054C251.471,258.099 259.461,253.524 273.409,247.154C281.432,243.49 294.08,238.592 308.566,240.903C309.557,241.061 314.162,230.987 324.487,213.726C332.812,199.809 342.015,179.427 342.015,179.427Z" style="fill:rgb(128,128,128);"/>
        </g>
        <g transform="matrix(1.01011,0,0,1,-11.391,0)">
            <path d="M1115.11,781.799L1115.23,793.579L1126.32,790.975L1126.77,788.571L1125.79,786.33L1122.42,783.778L1117.84,781.75L1115.11,781.799Z" style="fill:rgb(141,60,40);"/>
        </g>
        <path d="M108.325,904.138L108.247,934.802L101.276,933.781L89.068,929.037L73.413,922.629L69.437,920.18L70.157,915.474L75.901,912.52L88.071,908.184L97.137,905.842L102.742,904.837L108.325,904.138Z" style="fill:rgb(141,60,40);"/>
        <g id="Layer4" transform="matrix(1,0,0,1,-1.69471,321.835)">
            <path d="M109.711,565.3C109.711,565.3 74.246,569.296 57.457,578.121C40.667,586.946 34.258,588.541 27.092,598.818C25.863,600.58 29.085,795.484 29.085,795.484L272.654,871.409C272.654,871.409 290.148,873.587 314.454,871.991C338.76,870.394 349.42,868.728 356.671,867.866C363.922,867.005 370.29,866.277 370.29,866.277L1165.18,661.866L1166.2,471.985C1166.2,471.985 1162.5,463.11 1144.07,452.668C1125.64,442.226 1119.01,440.833 1116.9,440.808C1116.54,440.803 1116.81,460.816 1116.82,460.678C1116.82,460.541 1122.23,461.356 1126.31,465.449C1127.88,467.017 1129.81,468.656 1123.37,470.093C1116.94,471.53 368.049,667.478 368.049,667.478C368.049,667.478 346.247,672 330.187,672.101C314.127,672.202 290.122,669.683 278.509,668.776C266.895,667.868 264.422,667.341 262.084,666.738C259.746,666.135 73.541,599.241 73.541,599.241C73.541,599.241 69.356,595.488 77.284,592.738C85.213,589.988 85.614,590.286 92.314,587.792C98.492,585.494 109.975,583.5 109.975,583.5L109.711,565.3Z" style="fill:rgb(239,68,68);"/>
            <path d="M44.853,588.628C44.853,588.628 35.214,595.079 32.929,599.028C31.759,601.049 29.292,606.122 33.419,609.681C37.546,613.241 44.298,618.928 63.924,626.082C83.549,633.235 109.282,643.463 114.256,644.892C119.23,646.321 224.467,682.509 233.091,685.591C241.715,688.674 258.144,693.495 268.708,695.516C279.272,697.536 289.601,700.109 300.542,699.948C311.484,699.786 337.107,700.726 346.133,700.139C355.159,699.552 365.834,697.279 376.617,694.273C387.4,691.266 1156.95,485.665 1156.95,485.665C1156.95,485.665 1169.13,481.521 1162.23,473.025C1155.33,464.529 1143.76,456.104 1138.4,453.719C1133.05,451.335 1116.67,444.996 1116.67,444.996L1116.78,456.162C1116.78,456.162 1125.49,457.522 1132.72,465.245C1133.48,466.057 1134.97,471.822 1125.64,474.052C1116.3,476.283 366.949,673.152 366.949,673.152C366.949,673.152 339.856,678.193 318.045,676.933C296.233,675.672 273.131,673.521 255.444,669.882C254.964,669.783 64.157,601.689 64.157,601.689C64.157,601.689 60.677,596.02 64.804,594.058C68.931,592.097 74.856,589.328 82.519,586.248C90.182,583.167 109.914,579.966 109.914,579.966L109.813,568.927C109.813,568.927 88.225,571.486 72.746,577.102C57.267,582.718 48.086,586.141 44.853,588.628Z" style="fill:white;"/>
        </g>
        <g id="Layer41" serif:id="Layer4">
            <path d="M71.394,592.319L71.632,601.413L107.527,611.827C107.527,611.827 107.516,583.702 107.442,583.59" style="fill:rgb(33,71,115);"/>
            <path d="M1115.23,472.649L1115.16,460.47L1123.35,462.298L1127.52,465.595L1128.56,467.787L1127.28,469.908L1117.79,472.48L1115.23,472.649Z" style="fill:rgb(33,71,115);"/>
            <path d="M107.439,565.363C107.439,565.363 74.246,569.296 57.457,578.121C40.667,586.946 34.258,588.541 27.092,598.818C25.863,600.58 29.085,795.484 29.085,795.484L272.654,871.409C272.654,871.409 290.148,873.587 314.454,871.991C338.76,870.394 349.42,868.728 356.671,867.866C363.922,867.005 370.29,866.277 370.29,866.277L1165.18,661.866L1166.2,471.985C1166.2,471.985 1162.5,463.11 1144.07,452.668C1125.64,442.226 1118.74,441.161 1115.31,440.576C1115.2,440.558 1115.16,460.989 1115.17,460.852C1115.18,460.715 1122.23,461.356 1126.31,465.449C1127.88,467.017 1129.81,468.656 1123.37,470.093C1116.94,471.53 368.049,667.478 368.049,667.478C368.049,667.478 346.247,672 330.187,672.101C314.127,672.202 290.122,669.683 278.509,668.776C266.895,667.868 264.422,667.341 262.084,666.738C259.746,666.135 73.541,599.241 73.541,599.241C73.541,599.241 69.356,595.488 77.284,592.738C85.213,589.988 85.614,590.286 92.314,587.792C98.492,585.494 107.426,583.713 107.426,583.713L107.439,565.363Z" style="fill:rgb(59,130,246);"/>
            <path d="M44.853,588.628C44.853,588.628 35.214,595.079 32.929,599.028C31.759,601.049 29.292,606.122 33.419,609.681C37.546,613.241 44.298,618.928 63.924,626.082C83.549,633.235 109.282,643.463 114.256,644.892C119.23,646.321 224.467,682.509 233.091,685.591C241.715,688.674 258.144,693.495 268.708,695.516C279.272,697.536 289.601,700.109 300.542,699.948C311.484,699.786 337.107,700.726 346.133,700.139C355.159,699.552 365.834,697.279 376.617,694.273C387.4,691.266 1156.95,485.665 1156.95,485.665C1156.95,485.665 1169.13,481.521 1162.23,473.025C1155.33,464.529 1143.2,457.091 1138.4,453.719C1132.27,449.411 1115.22,444.956 1115.22,444.956L1115.2,456.186C1115.2,456.186 1125.49,457.522 1132.72,465.245C1133.48,466.057 1134.97,471.822 1125.64,474.052C1116.3,476.283 366.949,673.152 366.949,673.152C366.949,673.152 339.856,678.193 318.045,676.933C296.233,675.672 273.131,673.521 255.444,669.882C254.964,669.783 64.157,601.689 64.157,601.689C64.157,601.689 60.677,596.02 64.804,594.058C68.931,592.097 74.856,589.328 82.519,586.248C90.182,583.167 107.031,580.137 107.031,580.137L106.98,569.335C106.98,569.335 88.225,571.486 72.746,577.102C57.267,582.718 48.086,586.141 44.853,588.628Z" style="fill:white;"/>
        </g>
    </g>
</svg>
